<?xml version="1.0" encoding="UTF-8"?>
<!DOCTYPE svg PUBLIC "-//W3C//DTD SVG 1.1//EN" "http://www.w3.org/Graphics/SVG/1.1/DTD/svg11.dtd">
<svg xmlns="http://www.w3.org/2000/svg" version="1.1" width="480px" height="480px" style="shape-rendering:geometricPrecision; text-rendering:geometricPrecision; image-rendering:optimizeQuality; fill-rule:evenodd; clip-rule:evenodd" xmlns:xlink="http://www.w3.org/1999/xlink">
<g><path style="opacity:0.999" fill="#8a3eb2" d="M 37.5,-0.5 C 102.167,-0.5 166.833,-0.5 231.5,-0.5C 231.5,21.8333 231.5,44.1667 231.5,66.5C 229.265,66.2053 227.265,66.5386 225.5,67.5C 171.12,73.2692 127.954,98.2692 96,142.5C 90.7464,151.339 85.7464,160.339 81,169.5C 73.3658,187.372 68.8658,206.038 67.5,225.5C 66.5386,227.265 66.2053,229.265 66.5,231.5C 44.1667,231.5 21.8333,231.5 -0.5,231.5C -0.5,166.833 -0.5,102.167 -0.5,37.5C 0.897423,31.1674 3.39742,25.1674 7,19.5C 11.1667,15.3333 15.3333,11.1667 19.5,7C 25.2565,3.6128 31.2565,1.1128 37.5,-0.5 Z"/></g>
<g><path style="opacity:1" fill="#b793cd" d="M 231.5,-0.5 C 231.833,-0.5 232.167,-0.5 232.5,-0.5C 232.5,22.1667 232.5,44.8333 232.5,67.5C 230.167,67.5 227.833,67.5 225.5,67.5C 227.265,66.5386 229.265,66.2053 231.5,66.5C 231.5,44.1667 231.5,21.8333 231.5,-0.5 Z"/></g>
<g><path style="opacity:1" fill="#fdfcfb" d="M 232.5,-0.5 C 237.167,-0.5 241.833,-0.5 246.5,-0.5C 246.5,22.1667 246.5,44.8333 246.5,67.5C 249.167,67.5 251.833,67.5 254.5,67.5C 319.033,75.3308 366.199,107.997 396,165.5C 402.405,179.549 406.905,194.216 409.5,209.5C 409.28,214.1 409.946,218.433 411.5,222.5C 411.5,222.833 411.5,223.167 411.5,223.5C 411.5,226.5 411.5,229.5 411.5,232.5C 434.167,232.5 456.833,232.5 479.5,232.5C 479.5,237.167 479.5,241.833 479.5,246.5C 456.833,246.5 434.167,246.5 411.5,246.5C 411.5,249.5 411.5,252.5 411.5,255.5C 402.915,320.238 369.581,367.405 311.5,397C 293.507,404.386 274.84,409.219 255.5,411.5C 252.5,411.5 249.5,411.5 246.5,411.5C 246.5,434.167 246.5,456.833 246.5,479.5C 241.833,479.5 237.167,479.5 232.5,479.5C 232.5,456.833 232.5,434.167 232.5,411.5C 230.167,411.5 227.833,411.5 225.5,411.5C 159.71,403.868 111.877,370.535 82,311.5C 74.6034,293.48 69.7701,274.814 67.5,255.5C 67.5,252.5 67.5,249.5 67.5,246.5C 44.8333,246.5 22.1667,246.5 -0.5,246.5C -0.5,241.833 -0.5,237.167 -0.5,232.5C 22.1667,232.5 44.8333,232.5 67.5,232.5C 67.5,230.167 67.5,227.833 67.5,225.5C 68.8658,206.038 73.3658,187.372 81,169.5C 85.7464,160.339 90.7464,151.339 96,142.5C 127.954,98.2692 171.12,73.2692 225.5,67.5C 227.833,67.5 230.167,67.5 232.5,67.5C 232.5,44.8333 232.5,22.1667 232.5,-0.5 Z"/></g>
<g><path style="opacity:1" fill="#90b2f7" d="M 246.5,-0.5 C 246.833,-0.5 247.167,-0.5 247.5,-0.5C 247.5,21.8333 247.5,44.1667 247.5,66.5C 250.059,66.1984 252.393,66.5318 254.5,67.5C 251.833,67.5 249.167,67.5 246.5,67.5C 246.5,44.8333 246.5,22.1667 246.5,-0.5 Z"/></g>
<g><path style="opacity:0.999" fill="#4285f4" d="M 247.5,-0.5 C 312.167,-0.5 376.833,-0.5 441.5,-0.5C 447.833,0.897423 453.833,3.39742 459.5,7C 463.667,11.1667 467.833,15.3333 472,19.5C 475.387,25.2565 477.887,31.2565 479.5,37.5C 479.5,102.167 479.5,166.833 479.5,231.5C 457.167,231.5 434.833,231.5 412.5,231.5C 412.806,228.615 412.473,225.948 411.5,223.5C 411.5,223.167 411.5,222.833 411.5,222.5C 411.72,217.9 411.054,213.567 409.5,209.5C 406.905,194.216 402.405,179.549 396,165.5C 366.199,107.997 319.033,75.3308 254.5,67.5C 252.393,66.5318 250.059,66.1984 247.5,66.5C 247.5,44.1667 247.5,21.8333 247.5,-0.5 Z"/></g>
<g><path style="opacity:1" fill="#feebca" d="M 224.5,81.5 C 229.322,80.834 234.322,80.5007 239.5,80.5C 246.736,80.2984 253.736,80.9651 260.5,82.5C 248.515,81.757 236.515,81.4237 224.5,81.5 Z"/></g>
<g><path style="opacity:1" fill="#fbbc06" d="M 224.5,81.5 C 236.515,81.4237 248.515,81.757 260.5,82.5C 328.254,94.5813 372.254,133.581 392.5,199.5C 392.565,202.428 393.232,205.095 394.5,207.5C 395.196,213.349 396.196,219.016 397.5,224.5C 397.754,238.551 397.088,252.551 395.5,266.5C 394.087,269.219 393.42,272.219 393.5,275.5C 375.019,341.315 332.353,381.315 265.5,395.5C 251.889,397.113 238.222,397.78 224.5,397.5C 220.382,396.291 216.049,395.624 211.5,395.5C 206.809,393.409 201.809,392.076 196.5,391.5C 136.71,372.38 99.3771,332.38 84.5,271.5C 80.9807,251.554 80.6473,231.554 83.5,211.5C 99.1414,144.69 140.141,102.19 206.5,84C 212.721,83.7291 218.721,82.8958 224.5,81.5 Z"/></g>
<g><path style="opacity:1" fill="#fce5b3" d="M 285.5,155.5 C 285.819,160.363 285.486,165.03 284.5,169.5C 284.5,161.833 284.5,154.167 284.5,146.5C 252.833,146.5 221.167,146.5 189.5,146.5C 189.5,176.833 189.5,207.167 189.5,237.5C 188.502,207.005 188.169,176.338 188.5,145.5C 220.833,145.5 253.167,145.5 285.5,145.5C 285.5,148.833 285.5,152.167 285.5,155.5 Z"/></g>
<g><path style="opacity:1" fill="#fefefc" d="M 284.5,169.5 C 258.833,169.5 233.167,169.5 207.5,169.5C 207.171,183.677 207.504,197.677 208.5,211.5C 211.727,211.324 214.727,210.657 217.5,209.5C 240.108,205.541 260.774,210.041 279.5,223C 285.843,229.161 291.176,235.994 295.5,243.5C 301.698,263.967 300.531,283.967 292,303.5C 283.271,317.619 270.771,326.452 254.5,330C 231.638,334.964 208.971,334.13 186.5,327.5C 184.485,326.076 182.152,325.41 179.5,325.5C 179.334,317.16 179.5,308.827 180,300.5C 198.725,310.312 218.558,313.812 239.5,311C 255.738,308.587 266.738,299.754 272.5,284.5C 274.033,280.104 274.7,275.437 274.5,270.5C 274.964,264.752 273.964,259.419 271.5,254.5C 271.107,252.716 270.441,251.05 269.5,249.5C 262.156,238.482 251.822,231.982 238.5,230C 223.954,228.126 209.954,229.959 196.5,235.5C 194.079,235.878 191.746,236.545 189.5,237.5C 189.5,207.167 189.5,176.833 189.5,146.5C 221.167,146.5 252.833,146.5 284.5,146.5C 284.5,154.167 284.5,161.833 284.5,169.5 Z"/></g>
<g><path style="opacity:1" fill="#d9a204" d="M 285.5,155.5 C 287.833,155.5 290.167,155.5 292.5,155.5C 292.5,163.5 292.5,171.5 292.5,179.5C 266.833,179.5 241.167,179.5 215.5,179.5C 214.859,189.889 215.526,199.889 217.5,209.5C 214.727,210.657 211.727,211.324 208.5,211.5C 208.5,197.833 208.5,184.167 208.5,170.5C 234.005,170.831 259.339,170.498 284.5,169.5C 285.486,165.03 285.819,160.363 285.5,155.5 Z"/></g>
<g><path style="opacity:1" fill="#eed6a0" d="M 284.5,169.5 C 259.339,170.498 234.005,170.831 208.5,170.5C 208.5,184.167 208.5,197.833 208.5,211.5C 207.504,197.677 207.171,183.677 207.5,169.5C 233.167,169.5 258.833,169.5 284.5,169.5 Z"/></g>
<g><path style="opacity:1" fill="#fdd890" d="M 392.5,199.5 C 394.04,201.838 394.706,204.505 394.5,207.5C 393.232,205.095 392.565,202.428 392.5,199.5 Z"/></g>
<g><path style="opacity:1" fill="#c1d2fa" d="M 409.5,209.5 C 411.054,213.567 411.72,217.9 411.5,222.5C 409.946,218.433 409.28,214.1 409.5,209.5 Z"/></g>
<g><path style="opacity:1" fill="#d9a309" d="M 269.5,249.5 C 252.235,238.504 233.568,235.671 213.5,241C 207.919,243.043 202.419,245.21 197,247.5C 196.501,243.514 196.334,239.514 196.5,235.5C 209.954,229.959 223.954,228.126 238.5,230C 251.822,231.982 262.156,238.482 269.5,249.5 Z"/></g>
<g><path style="opacity:1" fill="#b791cd" d="M 67.5,225.5 C 67.5,227.833 67.5,230.167 67.5,232.5C 44.8333,232.5 22.1667,232.5 -0.5,232.5C -0.5,232.167 -0.5,231.833 -0.5,231.5C 21.8333,231.5 44.1667,231.5 66.5,231.5C 66.2053,229.265 66.5386,227.265 67.5,225.5 Z"/></g>
<g><path style="opacity:1" fill="#93b3f8" d="M 411.5,223.5 C 412.473,225.948 412.806,228.615 412.5,231.5C 434.833,231.5 457.167,231.5 479.5,231.5C 479.5,231.833 479.5,232.167 479.5,232.5C 456.833,232.5 434.167,232.5 411.5,232.5C 411.5,229.5 411.5,226.5 411.5,223.5 Z"/></g>
<g><path style="opacity:1" fill="#fee7bd" d="M 83.5,211.5 C 80.6473,231.554 80.9807,251.554 84.5,271.5C 81.63,260.661 80.2966,249.494 80.5,238C 80.1634,228.872 81.1634,220.039 83.5,211.5 Z"/></g>
<g><path style="opacity:1" fill="#f1928c" d="M -0.5,247.5 C -0.5,247.167 -0.5,246.833 -0.5,246.5C 22.1667,246.5 44.8333,246.5 67.5,246.5C 67.5,249.5 67.5,252.5 67.5,255.5C 66.5269,253.052 66.1936,250.385 66.5,247.5C 44.1667,247.5 21.8333,247.5 -0.5,247.5 Z"/></g>
<g><path style="opacity:1" fill="#8cc799" d="M 479.5,246.5 C 479.5,246.833 479.5,247.167 479.5,247.5C 457.167,247.5 434.833,247.5 412.5,247.5C 412.806,250.385 412.473,253.052 411.5,255.5C 411.5,252.5 411.5,249.5 411.5,246.5C 434.167,246.5 456.833,246.5 479.5,246.5 Z"/></g>
<g><path style="opacity:1" fill="#daa30c" d="M 295.5,243.5 C 299.941,248.71 303.107,254.71 305,261.5C 312.077,314.758 288.743,341.758 235,342.5C 218.45,342.742 202.45,340.075 187,334.5C 186.503,332.19 186.337,329.857 186.5,327.5C 208.971,334.13 231.638,334.964 254.5,330C 270.771,326.452 283.271,317.619 292,303.5C 300.531,283.967 301.698,263.967 295.5,243.5 Z"/></g>
<g><path style="opacity:0.999" fill="#ea4334" d="M -0.5,247.5 C 21.8333,247.5 44.1667,247.5 66.5,247.5C 66.1936,250.385 66.5269,253.052 67.5,255.5C 69.7701,274.814 74.6034,293.48 82,311.5C 111.877,370.535 159.71,403.868 225.5,411.5C 227.265,412.461 229.265,412.795 231.5,412.5C 231.5,434.833 231.5,457.167 231.5,479.5C 166.833,479.5 102.167,479.5 37.5,479.5C 31.2565,477.887 25.2565,475.387 19.5,472C 15.3333,467.833 11.1667,463.667 7,459.5C 3.39742,453.833 0.897423,447.833 -0.5,441.5C -0.5,376.833 -0.5,312.167 -0.5,247.5 Z"/></g>
<g><path style="opacity:0.999" fill="#34a853" d="M 479.5,247.5 C 479.5,312.167 479.5,376.833 479.5,441.5C 477.887,447.744 475.387,453.744 472,459.5C 467.833,463.667 463.667,467.833 459.5,472C 453.833,475.603 447.833,478.103 441.5,479.5C 376.833,479.5 312.167,479.5 247.5,479.5C 247.5,457.167 247.5,434.833 247.5,412.5C 250.385,412.806 253.052,412.473 255.5,411.5C 274.84,409.219 293.507,404.386 311.5,397C 369.581,367.405 402.915,320.238 411.5,255.5C 412.473,253.052 412.806,250.385 412.5,247.5C 434.833,247.5 457.167,247.5 479.5,247.5 Z"/></g>
<g><path style="opacity:1" fill="#fee6bb" d="M 397.5,224.5 C 398.658,233.991 398.825,243.658 398,253.5C 397.571,258.047 396.738,262.381 395.5,266.5C 397.088,252.551 397.754,238.551 397.5,224.5 Z"/></g>
<g><path style="opacity:1" fill="#fdd486" d="M 271.5,254.5 C 273.964,259.419 274.964,264.752 274.5,270.5C 274.7,275.437 274.033,280.104 272.5,284.5C 274.044,274.425 273.711,264.425 271.5,254.5 Z"/></g>
<g><path style="opacity:1" fill="#fdda95" d="M 395.5,266.5 C 395.58,269.781 394.913,272.781 393.5,275.5C 393.42,272.219 394.087,269.219 395.5,266.5 Z"/></g>
<g><path style="opacity:1" fill="#fdd276" d="M 196.5,391.5 C 201.809,392.076 206.809,393.409 211.5,395.5C 206.194,394.947 201.194,393.614 196.5,391.5 Z"/></g>
<g><path style="opacity:1" fill="#fee9c5" d="M 265.5,395.5 C 261.1,397.051 256.434,397.884 251.5,398C 242.324,398.824 233.324,398.657 224.5,397.5C 238.222,397.78 251.889,397.113 265.5,395.5 Z"/></g>
<g><path style="opacity:1" fill="#f1948f" d="M 225.5,411.5 C 227.833,411.5 230.167,411.5 232.5,411.5C 232.5,434.167 232.5,456.833 232.5,479.5C 232.167,479.5 231.833,479.5 231.5,479.5C 231.5,457.167 231.5,434.833 231.5,412.5C 229.265,412.795 227.265,412.461 225.5,411.5 Z"/></g>
<g><path style="opacity:1" fill="#89c698" d="M 255.5,411.5 C 253.052,412.473 250.385,412.806 247.5,412.5C 247.5,434.833 247.5,457.167 247.5,479.5C 247.167,479.5 246.833,479.5 246.5,479.5C 246.5,456.833 246.5,434.167 246.5,411.5C 249.5,411.5 252.5,411.5 255.5,411.5 Z"/></g>
</svg>
